<svg version="1.1" viewBox="0.0 0.0 148.45406824146983 67.1994750656168" height="80px" width="150px" fill="none" stroke="none" stroke-linecap="square" stroke-miterlimit="10" xmlns:xlink="http://www.w3.org/1999/xlink" xmlns="http://www.w3.org/2000/svg"><clipPath id="p.0"><path d="m0 0l148.45407 0l0 67.19948l-148.45407 0l0 -67.19948z" clip-rule="nonzero"/></clipPath><g clip-path="url(#p.0)"><path fill="#000000" fill-opacity="0.0" d="m0 0l148.45407 0l0 67.19948l-148.45407 0z" fill-rule="evenodd"/><path fill="#000000" fill-opacity="0.0" d="m0 0l148.7874 0l0 67.874016l-148.7874 0z" fill-rule="evenodd"/><path fill="#ff0000" d="m18.203125 21.962498l5.921875 -0.796875l-2.84375 13.359375q1.921875 -0.171875 3.53125 -1.6875q1.625 -1.515625 2.546875 -3.75q0.921875 -2.25 0.921875 -4.40625q0 -2.40625 -1.25 -3.921875q-1.234375 -1.515625 -3.71875 -1.515625q-4.875 0 -7.625 2.5625q-2.734375 2.546875 -2.734375 7.15625q0 1.484375 0.28125 2.0625q0.28125 0.578125 0.28125 0.65625q-2.15625 0 -3.21875 -0.890625q-1.0625 -0.90625 -1.0625 -2.984375q0 -2.5625 2.09375 -4.984375q2.109375 -2.421875 5.390625 -3.921875q3.28125 -1.5 6.5625 -1.5q3.15625 0 5.28125 1.078125q2.125 1.078125 3.140625 2.859375q1.015625 1.78125 1.015625 3.9375q0 2.609375 -1.421875 5.09375q-1.421875 2.46875 -4.0625 4.046875q-2.640625 1.578125 -6.078125 1.578125l-0.203125 0l-2.4375 11.40625l-5.75 0l5.4375 -25.4375zm19.560608 25.59375q-2.96875 0 -4.6875 -1.515625q-1.71875 -1.515625 -1.71875 -4.796875q0 -2.71875 1.125 -6.03125q1.125 -3.328125 3.59375 -5.75q2.484375 -2.421875 6.25 -2.421875q5.109375 0 5.109375 6.40625l0 0.03125q0.125 0.046875 0.4375 0.046875q1.328125 0 3.046875 -0.703125q1.71875 -0.703125 3.125 -1.703125l0.359375 1.078125q-1.171875 1.25 -3.03125 2.109375q-1.859375 0.859375 -4.046875 1.21875q-0.328125 3.640625 -1.65625 6.359375q-1.3125 2.71875 -3.390625 4.203125q-2.078125 1.46875 -4.515625 1.46875zm1.59375 -3.59375q0.96875 0 1.921875 -1.09375q0.953125 -1.109375 1.671875 -3.0q0.734375 -1.90625 1.046875 -4.234375q-1.078125 -0.234375 -1.078125 -1.671875q0 -1.640625 1.234375 -2.15625q-0.078125 -1.328125 -0.40625 -1.828125q-0.3125 -0.5 -1.109375 -0.5q-1.3125 0 -2.5625 1.921875q-1.234375 1.921875 -2.0 4.609375q-0.75 2.671875 -0.75 4.703125q0 1.921875 0.4375 2.59375q0.4375 0.65625 1.59375 0.65625zm25.169357 3.671875q-2.484375 0 -3.765625 -1.171875q-1.28125 -1.1875 -1.28125 -3.375q0 -0.96875 0.234375 -2.09375l0.328125 -1.546875q0.15625 -0.6875 0.15625 -1.484375q0 -1.921875 -1.4375 -1.921875q-0.640625 0 -1.34375 0.359375q-0.703125 0.359375 -1.625 1.125l-2.078125 9.875l-5.75 0l5.796875 -27.203125l5.921875 -0.796875l-3.0 14.078125l7.71875 -6.078125l3.953125 0l-8.0 5.5625q0.609375 -0.15625 1.328125 -0.15625q2.15625 0 3.265625 1.328125q1.125 1.3125 1.125 3.34375q0 0.84375 -0.15625 1.515625l-0.4375 2.0q-0.203125 0.71875 -0.203125 1.28125q0 1.484375 1.5625 1.484375q1.203125 0 1.921875 -0.859375q0.71875 -0.859375 1.4375 -2.65625l1.6875 0q-2.484375 7.390625 -7.359375 7.390625zm11.391861 0q-2.953125 0 -4.59375 -1.53125q-1.640625 -1.546875 -1.640625 -4.828125q0 -2.75 1.078125 -6.0625q1.078125 -3.328125 3.515625 -5.75q2.4375 -2.421875 6.203125 -2.421875q4.40625 0 4.40625 3.84375q0 2.234375 -1.28125 4.125q-1.28125 1.875 -3.40625 3.015625q-2.125 1.140625 -4.515625 1.296875q-0.078125 1.203125 -0.078125 1.59375q0 1.96875 0.671875 2.671875q0.6875 0.6875 2.203125 0.6875q2.15625 0 3.6875 -1.0q1.546875 -1.0 3.390625 -3.03125l1.359375 0q-4.4375 7.390625 -11.0 7.390625zm0.078125 -10.234375q1.484375 -0.078125 2.8125 -1.03125q1.34375 -0.96875 2.15625 -2.4375q0.828125 -1.484375 0.828125 -3.125q0 -1.640625 -1.0 -1.640625q-1.4375 0 -2.8125 2.515625q-1.375 2.515625 -1.984375 5.71875zm14.359985 10.234375q-2.28125 0 -3.796875 -1.546875q-1.515625 -1.5625 -1.515625 -4.890625q0 -2.953125 1.171875 -6.21875q1.1875 -3.265625 3.515625 -5.515625q2.34375 -2.265625 5.59375 -2.265625q1.640625 0 2.4375 0.5625q0.796875 0.5625 0.796875 1.484375l0 0.15625l1.953125 -9.203125l5.921875 -0.796875l-4.59375 21.59375q-0.15625 0.609375 -0.15625 1.28125q0 0.8125 0.375 1.15625q0.375 0.328125 1.265625 0.328125q1.109375 0 1.921875 -0.953125q0.828125 -0.96875 1.3125 -2.5625l1.6875 0q-2.453125 7.15625 -8.046875 7.15625q-1.640625 0 -2.671875 -0.875q-1.015625 -0.890625 -1.25 -2.5625q-1.03125 1.59375 -2.5 2.640625q-1.453125 1.03125 -3.421875 1.03125zm2.609375 -3.875q0.953125 0 1.921875 -0.875q0.984375 -0.890625 1.359375 -2.4375l0 -0.203125l1.953125 -9.15625q-0.359375 -1.40625 -1.640625 -1.40625q-1.59375 0 -2.875 1.859375q-1.28125 1.859375 -2.0 4.484375q-0.71875 2.609375 -0.71875 4.609375q0 2.0 0.578125 2.5625q0.578125 0.5625 1.421875 0.5625zm20.187485 3.875q-3.1875 0 -5.15625 -1.546875q-1.953125 -1.5625 -1.953125 -4.96875q0 -2.640625 1.078125 -5.921875q1.078125 -3.28125 3.515625 -5.71875q2.4375 -2.4375 6.203125 -2.4375q4.40625 0 4.40625 3.84375q0 2.234375 -1.28125 4.125q-1.28125 1.875 -3.40625 3.015625q-2.125 1.140625 -4.5625 1.296875q-0.03125 0.359375 -0.03125 1.078125q0 3.953125 4.0 3.953125q2.28125 0 4.875 -1.1875q2.59375 -1.203125 4.515625 -3.359375l-2.28125 -12.40625l5.640625 0l1.5625 8.640625q1.796875 -1.921875 2.796875 -3.59375q1.0 -1.6875 1.0 -2.765625q0 -0.359375 -0.03125 -0.484375q-0.5625 0.078125 -0.71875 0.078125q-0.96875 0 -1.40625 -0.59375q-0.4375 -0.59375 -0.4375 -1.484375q0 -1.0 0.59375 -1.515625q0.609375 -0.515625 1.5625 -0.515625q1.359375 0 2.078125 0.984375q0.71875 0.96875 0.71875 2.484375q0 1.921875 -1.328125 4.125q-1.3125 2.203125 -4.390625 5.515625l0.359375 1.96875q0.359375 2.0 0.8125 2.765625q0.46875 0.75 1.71875 0.75q0.71875 0 1.265625 -0.234375q-0.15625 2.0 -1.421875 3.0625q-1.25 1.046875 -2.96875 1.046875q-1.875 0 -2.9375 -1.25q-1.0625 -1.265625 -1.75 -4.296875q-2.390625 2.515625 -5.859375 4.03125q-3.453125 1.515625 -6.78125 1.515625zm-0.828125 -10.234375q1.515625 -0.046875 2.84375 -1.0q1.34375 -0.953125 2.15625 -2.453125q0.828125 -1.5 0.828125 -3.140625q0 -1.640625 -1.0 -1.640625q-1.390625 0 -2.796875 2.578125q-1.390625 2.578125 -2.03125 5.65625z" fill-rule="nonzero"/></g></svg>
